<svg width="54" height="54" fill="none" xmlns="http://www.w3.org/2000/svg"><path d="M3.797 1.856C.844 3.712.928 23.372 4.472 29.7l22.022-13.5C23.119 10.21 6.58.169 3.797 1.856Z" fill="#4C5359"/><path d="M8.016 9.534c-1.266.76-1.857 13.67.337 17.72l14.09-8.607C20.42 14.766 9.198 8.859 8.017 9.534Z" fill="#F7A4A4"/><path d="M50.203 1.856c2.953 1.856 2.869 21.516-.59 27.844L27.59 16.2C30.88 10.21 47.419.169 50.203 1.856Z" fill="#4C5359"/><path d="M45.984 9.534c1.266.76 1.857 13.67-.337 17.72l-14.175-8.607c2.11-3.881 13.331-9.788 14.512-9.113Z" fill="#F7A4A4"/><path d="M26.831 11.053c-22.865 0-24.975 16.369-24.975 25.65 0 3.797 11.138 15.61 24.975 15.61 13.838 0 24.975-11.813 24.975-15.61 0-9.281-2.11-25.65-24.975-25.65Z" fill="#4C5359"/><path d="M20.419 32.653s-2.616 4.05-7.425 2.785c-4.81-1.266-5.063-6.076-5.063-6.076s2.616-4.05 7.425-2.784c4.894 1.266 5.063 6.075 5.063 6.075Z" fill="#BFFFAB"/><path d="M19.913 30.544s-2.279 2.531-5.485 2.531c-3.46 0-5.484-4.978-5.484-4.978s2.278-2.616 6.412-1.603c3.797 1.012 4.557 4.05 4.557 4.05Z" fill="#93E67F"/><path d="M16.369 30.46c0 5.568-2.7 5.568-2.7 0 .084-5.57 2.7-5.57 2.7 0Z" fill="#4C5359"/><path d="M33.244 32.653s2.615 4.05 7.425 2.785c4.81-1.266 5.062-6.076 5.062-6.076s-2.615-4.05-7.425-2.784c-4.893 1.266-5.062 6.075-5.062 6.075Z" fill="#BFFFAB"/><path d="M33.666 30.544s2.278 2.531 5.484 2.531c3.46 0 5.484-4.978 5.484-4.978s-2.278-2.616-6.412-1.603c-3.797 1.012-4.556 4.05-4.556 4.05Z" fill="#93E67F"/><path d="M37.21 30.46c0 5.568 2.7 5.568 2.7 0 0-5.57-2.7-5.57-2.7 0Z" fill="#4C5359"/><path d="M34.087 37.125c-2.193-1.688-4.556-7.34-7.256-7.34s-5.147 5.652-7.34 7.34c-3.46 2.7-12.657 5.737-12.657 5.737s9.788 8.607 19.913 8.607 19.912-8.607 19.912-8.607c.085 0-9.112-3.037-12.572-5.737Z" fill="#fff"/><path d="M26.831 48.094c.792 0 1.435-.945 1.435-2.11s-.643-2.109-1.435-2.109-1.434.944-1.434 2.11c0 1.164.642 2.109 1.434 2.109Z" fill="#FF94A4"/><path d="M33.919 44.803c-.844.506-1.772.675-2.616.675-.928-.084-1.772-.337-2.447-.928a3.51 3.51 0 0 1-1.35-2.194l-.675-3.797-.675 3.797c-.168.844-.675 1.603-1.35 2.194-.675.59-1.603.844-2.447.928-.928 0-1.856-.169-2.615-.675-.844-.506-1.519-1.265-1.857-2.278a4.286 4.286 0 0 0 1.435 2.869c.844.76 1.94 1.181 2.953 1.181a4.793 4.793 0 0 0 3.206-.928c.506-.338.928-.844 1.266-1.35.337.506.76 1.012 1.265 1.35.929.675 2.11 1.012 3.207.928a5.634 5.634 0 0 0 3.037-1.181c.844-.76 1.435-1.772 1.435-2.869-.254.928-.928 1.772-1.772 2.278Z" fill="#4C5359"/><path d="M30.206 37.8c-.675-.844-2.784-.928-3.375-.928-.59 0-2.7.084-3.375.928-.506.59-.084 2.11 1.181 3.375.844.844 1.604 1.097 2.194 1.097.59 0 1.435-.253 2.194-1.097 1.266-1.35 1.688-2.784 1.181-3.375Z" fill="#4C5359"/></svg>