<svg width="66" height="66" fill="none" xmlns="http://www.w3.org/2000/svg"><path d="M32.876 10.297c-15-.387-19.856 11.225-20.228 15.582-.288 3.388-1.742 15.778 5.322 24.1 3.645 4.296 9.487 6.435 15.68 6.291 6.244-.144 11.885-1.387 15.68-6.388 6.389-8.42 5.708-21.002 4.842-25.07-.815-3.785-3.976-14.072-21.296-14.515Z" fill="#FFEAC8"/><path d="M49.923 33.222c.53 4.027-1.217 7.868-5.822 8.141-4.212.253-6.811-2.433-7.017-6.388-.212-4.053 2.005-7.822 5.527-8.209 3.718-.407 6.786 2.429 7.312 6.456ZM9.745 13.777s-5.068 1.986-6.29 4.935c-1.645 3.97-.887 11.85 0 14.907.871 3 3.191 6.1 6.775 6.002 3.584-.098 6.729-3.728 7.837-8.467 1.114-4.744 1.357-12.87 1.692-14.324.335-1.454.918-2.614.918-2.614s-4.45-4.31-10.932-.438ZM52.186 13.148s6.874.243 8.519.97c1.644.727 3.145 4.016 3 8.42-.144 4.403-.433 11.524-2.66 13.984-1.841 2.031-5.564 2.176-7.647-.34-2.083-2.517-3.388-6.776-3.872-9.535-.485-2.758-1.305-6.336-1.841-7.935-.531-1.598-1.84-4.79-2.516-5.517-.68-.722.675-1.403 7.017-.047Z" fill="#D27856"/><path d="M15.453 11.504c-3.728-.238-9.874 2.712-11.132 5.76-1.258 3.047-.52 12.936.536 15.824 1.114 3.047 3.434 6.873 7.451 3.583 4.017-3.29 5.079-11.565 5.47-14.226.388-2.66.919-5.904 1.501-6.58.583-.675 1.403-1.644 1.403-1.644s-.63-2.429-5.229-2.717ZM53.006 10.874c3.501.243 7.307 1.547 8.71 4.6 1.402 3.047.87 10.26.34 13.695-.532 3.434-1.79 7.018-4.935 6.63-3.145-.386-4.744-4.645-5.708-8.662-.97-4.016-1.985-8.033-3.243-10.936-.758-1.753-3.388-3.047-3.388-3.047s1.16-2.764 8.224-2.28Z" fill="#865B51"/><path d="M26.039 34.903c-.206 1.763-1.114 3.186-3.083 2.98-1.398-.15-2.336-1.815-2.13-3.584.206-1.763.82-3.032 2.47-3 2.563.046 2.95 1.835 2.743 3.604ZM46.272 34.408c.083 1.773-.618 3.29-2.666 3.439-1.779.129-2.691-1.413-2.769-3.187-.082-1.773.8-3.197 2.496-3.408 2.202-.284 2.857 1.382 2.94 3.156ZM38.734 43.349c.082 1.773-1.114 3.434-4.842 3.387-3.63-.046-4.95-1.516-5.033-3.29-.082-1.773 1.98-3.366 4.935-3.433 4.068-.104 4.857 1.557 4.94 3.336Z" fill="#2F2F2F"/><path d="M30.504 50.51s.439 4.213.872 5.471c.918 2.661 4.785 2.218 5.47-.288.583-2.13.197-5.806.197-5.806l-3.434-.485-3.105 1.109Z" fill="#E94B8C"/><path d="M34.01 51.913c-.603.026-.582.583-.582 1.862 0 1.283.072 2.057.655 2.031.582-.026.51-1.016.51-1.933 0-.918.047-1.986-.582-1.96Z" fill="#EF87B2"/><path d="M25.859 46.515c-.697 1.026.654 1.933 1.768 2.686 1.114.748 2.465 1.887 4.063 1.861 1.79-.025 2.274-1.232 2.274-1.232s.583 1.428 3.12 1.16c1.356-.144 3.026-1.665 3.532-2.006.97-.654 2.13-1.474 1.619-2.155-.583-.779-1.815.268-3.073.918-1.258.655-1.691.97-2.635.97-.944 0-1.599-.387-1.645-1.96-.041-1.284-.026-1.526-.026-1.526h-2.155s.072 1.356.072 1.742c0 1.016-.531 1.455-1.547 1.5-1.015.047-2.104-.798-2.64-1.113-.526-.31-2.17-1.665-2.727-.845Z" fill="#2F2F30"/></svg>