<svg width="32" height="32" fill="none" xmlns="http://www.w3.org/2000/svg"><path d="M4 28.479a.498.498 0 0 0 .143-.021l10-2.979a.504.504 0 0 0 .213-.127l10.09-10.205c.023-.024.035-.053.052-.08l3.658-3.658a1.56 1.56 0 0 0 0-2.203L22.92 3.972a1.558 1.558 0 0 0-2.202 0l-3.739 3.739c-.024.024-.036.054-.054.081L6.807 17.911a.495.495 0 0 0-.122.199l-3.16 9.715a.5.5 0 0 0 .475.654ZM17.359 8.771l1.04 1.04-8.523 8.563-1.727-.392 9.21-9.211ZM10.5 19.165l8.607-8.646 2.434 2.434-8.745 8.547H10.5v-2.335Zm12.885-4.368-9.246 9.352-.576-1.999 8.684-8.489 1.138 1.136ZM7.493 18.859l2.007.456V22a.5.5 0 0 0 .5.5h2.624l.633 2.2-8.487 2.528 2.723-8.369Zm13.932-14.18a.56.56 0 0 1 .788 0l5.235 5.235a.558.558 0 0 1 0 .789l-3.372 3.372-6.023-6.023 3.372-3.373Z" fill="#000"/></svg>